HIERARCHY
ROOT Hips
{
	OFFSET 0.000000 0.000000 0.000000
	CHANNELS 6 Xposition Yposition Zposition Zrotation Yrotation Xrotation 
	JOINT LHipJoint
	{
		OFFSET 0.000000 0.000000 0.000000
		CHANNELS 3 Zrotation Yrotation Xrotation
		JOINT LeftUpLeg
		{
			OFFSET 1.363060 -1.794630 0.839290
			CHANNELS 3 Zrotation Yrotation Xrotation
			JOINT LeftLeg
			{
				OFFSET 2.448110 -6.726130 0.000000
				CHANNELS 3 Zrotation Yrotation Xrotation
				JOINT LeftFoot
				{
					OFFSET 2.562200 -7.039590 0.000000
					CHANNELS 3 Zrotation Yrotation Xrotation
					JOINT LeftToeBase
					{
						OFFSET 0.157640 -0.433110 2.322550
						CHANNELS 3 Zrotation Yrotation Xrotation
						End Site
						{
							OFFSET 0.000000 0.000000 0.000000
						}
					}
				}
			}
		}
	}
	JOINT RHipJoint
	{
		OFFSET 0.000000 0.000000 0.000000
		CHANNELS 3 Zrotation Yrotation Xrotation
		JOINT RightUpLeg
		{
			OFFSET -1.305520 -1.794630 0.839290
			CHANNELS 3 Zrotation Yrotation Xrotation
			JOINT RightLeg
			{
				OFFSET -2.542530 -6.985550 0.000000
				CHANNELS 3 Zrotation Yrotation Xrotation
				JOINT RightFoot
				{
					OFFSET -2.568260 -7.056230 0.000000
					CHANNELS 3 Zrotation Yrotation Xrotation
					JOINT RightToeBase
					{
						OFFSET -0.164730 -0.452590 2.363150
						CHANNELS 3 Zrotation Yrotation Xrotation
						End Site
						{
							OFFSET 0.000000 0.000000 0.000000
						}
					}
				}
			}
		}
	}
}
MOTION
Frames: 33
Frame Time: 0.008333
3.005260 15.979468 2.107059 168.085768 -88.698065 -125.688293 -10.130138 0.893185 0.164536 -23.789297 1.863672 -73.644250 -3.686352 4.470099 47.773648 2.648539 6.617984 -20.404177 -1.537900 0.000000 -31.643000 7.397037 1.364863 -0.918553 14.430456 -15.233804 -73.644737 5.053549 -5.164007 40.724221 0.914511 6.332421 -4.913501 0.321200 0.000000 -71.547300
3.001309 15.985194 2.113947 171.230975 -89.139186 -129.024834 -10.063779 0.953606 0.225299 -23.535956 1.748707 -73.404794 -3.659978 4.439140 47.706497 2.629167 6.550058 -20.354994 -1.518900 0.000000 -31.713299 7.468433 1.434618 -1.013692 14.533050 -15.518086 -73.289379 5.036210 -5.141765 40.740158 0.868218 6.125224 -5.001941 0.294500 -0.000000 -71.579700
2.996826 15.991722 2.120611 173.470947 -89.611386 -131.468245 -10.015341 0.987825 0.290202 -23.289981 1.616662 -73.130585 -3.631499 4.398102 47.622662 2.606629 6.474123 -20.293392 -1.497800 0.000001 -31.795800 7.524033 1.475573 -1.103939 14.624748 -15.833770 -72.923073 5.022601 -5.121786 40.739534 0.819757 5.908514 -5.091477 0.267901 -0.000000 -71.611200
2.991848 15.999082 2.127043 -4.858745 -89.893707 46.645649 -9.980447 1.007121 0.360383 -23.048430 1.472947 -72.828381 -3.601945 4.350145 47.522004 2.581559 6.391636 -20.220740 -1.474599 -0.000000 -31.886100 7.567684 1.497711 -1.191008 14.711158 -16.174029 -72.543013 5.011821 -5.101545 40.722374 0.769964 5.685358 -5.180521 0.241500 -0.000000 -71.641400
2.986136 16.007076 2.133330 -3.575346 -89.377877 45.140561 -9.956217 1.017646 0.439069 -22.806900 1.314631 -72.508696 -3.571398 4.296787 47.405165 2.554765 6.304808 -20.136774 -1.449300 0.000000 -31.998600 7.602358 1.505512 -1.273120 14.794382 -16.529735 -72.152713 5.003169 -5.079827 40.689608 0.718451 5.452851 -5.269189 0.214900 -0.000000 -71.665900
2.979910 16.015828 2.139370 -2.527424 -88.845117 43.860075 -9.938067 1.024278 0.524552 -22.567898 1.146274 -72.168105 -3.540586 4.238809 47.271066 2.526392 6.213859 -20.042970 -1.422300 0.000000 -32.111000 7.631929 1.503930 -1.352682 14.877349 -16.905374 -71.748994 4.996905 -5.056118 40.639435 0.666674 5.218426 -5.356297 0.188899 -0.000000 -71.688599
2.972876 16.025119 2.145156 -1.639157 -88.293564 42.735948 -9.924004 1.029577 0.619601 -22.329876 0.962070 -71.813541 -3.509335 4.176387 47.119836 2.496967 6.120328 -19.938109 -1.393600 0.000000 -32.238600 7.658699 1.494156 -1.427273 14.959539 -17.296345 -71.337766 4.992744 -5.030504 40.573572 0.614165 4.979319 -5.442452 0.163400 0.000000 -71.706100
2.965134 16.034948 2.150618 -0.847456 -87.722886 41.704015 -9.911244 1.035405 0.724310 -22.094900 0.760592 -71.446343 -3.477737 4.109674 46.951491 2.466656 6.024774 -19.821569 -1.363200 0.000000 -32.384800 7.685011 1.477838 -1.496608 15.041288 -17.703556 -70.921974 4.990695 -5.003342 40.492766 0.561336 4.737726 -5.527811 0.138301 -0.000000 -71.718800
2.956703 16.045382 2.155590 -0.094730 -87.133390 40.705165 -9.896740 1.043252 0.836464 -21.868226 0.544329 -71.060390 -3.446535 4.038372 46.764059 2.435243 5.926153 -19.694136 -1.331300 0.000000 -32.529300 7.713749 1.457138 -1.561860 15.119507 -18.133000 -70.500196 4.990911 -4.975144 40.396802 0.509119 4.498664 -5.611593 0.114300 -0.000000 -71.730800
2.947682 16.056475 2.159934 0.653530 -86.524432 39.703690 -9.878165 1.053683 0.954604 -21.654377 0.313978 -70.652960 -3.416215 3.962274 46.556403 2.402604 5.823875 -19.555828 -1.298000 0.000000 -32.667300 7.747001 1.433225 -1.623253 15.191007 -18.587750 -70.073280 4.993253 -4.946606 40.286785 0.457909 4.264311 -5.693251 0.091700 -0.000000 -71.743900
2.937907 16.068135 2.163606 1.403420 -85.893733 38.696417 -9.854897 1.066542 1.079127 -21.455422 0.068511 -70.225075 -3.386950 3.881143 46.327416 2.368406 5.716903 -19.403919 -1.262900 -0.000000 -32.819700 7.785613 1.405397 -1.679076 15.253689 -19.065984 -69.644166 4.997637 -4.918152 40.163176 0.407524 4.033447 -5.772062 0.070200 -0.000000 -71.758700
2.927594 16.080584 2.166422 2.169899 -85.241859 37.663370 -9.825422 1.081375 1.206721 -21.276872 -0.186599 -69.769532 -3.359525 3.794774 46.074764 2.332066 5.603283 -19.238034 -1.225900 0.000000 -32.980000 7.830945 1.374716 -1.730545 15.302327 -19.571394 -69.208565 5.003725 -4.890150 40.025648 0.358502 3.808753 -5.845910 0.050200 0.000000 -71.779000
2.916750 16.093854 2.168303 2.950631 -84.569040 36.606552 -9.789648 1.097337 1.335840 -21.121428 -0.447176 -69.284206 -3.334448 3.703222 45.797485 2.293056 5.481171 -19.056951 -1.186900 0.000000 -33.148800 7.883320 1.340719 -1.777064 15.333690 -20.102654 -68.764970 5.011307 -4.862696 39.873360 0.310773 3.589540 -5.913185 0.031600 0.000000 -71.805600
2.905679 16.108278 2.169093 3.750327 -83.878951 35.513647 -9.747399 1.113327 1.461167 -20.993408 -0.703114 -68.755718 -3.312559 3.606372 45.492422 2.250813 5.349171 -18.861451 -1.146100 0.000000 -33.308300 7.942897 1.304907 -1.822325 15.342546 -20.666038 -68.301769 5.020202 -4.835483 39.703135 0.265371 3.380553 -5.969799 0.014800 0.000000 -71.844600
2.894432 16.123798 2.168876 4.541473 -83.171827 34.413887 -9.700385 1.127917 1.583526 -20.891126 -0.951991 -68.190878 -3.293742 3.504857 45.160753 2.204920 5.205917 -18.648347 -1.103000 0.000001 -33.490900 8.008564 1.265383 -1.862806 15.325866 -21.249154 -67.819965 5.029451 -4.807979 39.514816 0.220866 3.173818 -6.014786 -0.001100 -0.000000 -71.890500
2.883311 16.140756 2.167640 5.319989 -82.453898 33.304057 -9.650073 1.140055 1.697751 -20.814609 -1.182807 -67.576786 -3.278440 3.398972 44.799820 2.155264 5.052013 -18.419366 -1.058201 0.000000 -33.664801 8.078844 1.223870 -1.903783 15.281808 -21.858269 -67.304627 5.039246 -4.779020 39.302312 0.178617 2.975247 -6.042766 -0.015501 -0.000000 -71.949600
2.872464 16.159080 2.165480 6.059794 -81.728410 32.212483 -9.598421 1.148587 1.804775 -20.760023 -1.393023 -66.922480 -3.266176 3.289670 44.412339 2.101835 4.887761 -18.171901 -1.011400 -0.000001 -33.864900 8.152467 1.178882 -1.941655 15.207974 -22.477377 -66.756522 5.048365 -4.747795 39.065797 0.136887 2.775432 -6.053522 -0.029600 -0.000000 -72.012800
2.862222 16.178960 2.162572 6.748188 -81.002394 31.147181 -9.547798 1.152908 1.901789 -20.722279 -1.575879 -66.222307 -3.256583 3.177669 43.998189 2.045201 4.716094 -17.908453 -0.963300 -0.000001 -34.065100 8.226979 1.131873 -1.980878 15.106293 -23.108157 -66.164372 5.056963 -4.712851 38.799847 0.096647 2.578187 -6.042400 -0.043101 -0.000000 -72.083000
2.852842 16.200405 2.159129 7.368268 -80.282030 30.124545 -9.500409 1.152635 1.988399 -20.694510 -1.728466 -65.479553 -3.248867 3.063947 43.559505 1.986114 4.540497 -17.629896 -0.914500 0.000000 -34.265500 8.300274 1.083299 -2.022653 14.979185 -23.744358 -65.523646 5.064796 -4.672925 38.501182 0.057841 2.382337 -6.006833 -0.056300 0.000000 -72.157800
2.844436 16.223217 2.155265 7.912969 -79.571785 29.157414 -9.456965 1.147572 2.066188 -20.672391 -1.853217 -64.706899 -3.242205 2.949475 43.100461 1.925379 4.364262 -17.335083 -0.865100 -0.000001 -34.492500 8.372032 1.032830 -2.063595 14.825771 -24.369747 -64.839629 5.070855 -4.627693 38.171486 0.018887 2.179903 -5.948674 -0.070100 0.000000 -72.225500
2.837320 16.247416 2.151347 8.371624 -78.879733 28.254121 -9.419914 1.138099 2.134039 -20.646067 -1.948839 -63.902291 -3.235510 2.835227 42.623411 1.864515 4.193561 -17.029994 -0.816400 -0.000000 -34.705800 8.438999 0.982510 -2.110147 14.655935 -24.991345 -64.106354 5.076246 -4.576141 37.806606 -0.018113 1.980575 -5.863727 -0.083900 -0.000000 -72.293600
2.831459 16.272560 2.147367 8.755830 -78.208306 27.413875 -9.388123 1.124528 2.194833 -20.615450 -2.023520 -63.083397 -3.228106 2.721977 42.133677 1.804554 4.032409 -16.712741 -0.768500 0.000000 -34.940600 8.502620 0.931945 -2.156517 14.467120 -25.591228 -63.338397 5.079850 -4.519252 37.412719 -0.055064 1.775556 -5.756672 -0.098700 -0.000000 -72.346900
2.827277 16.298670 2.143631 9.058624 -77.564697 26.640164 -9.363311 1.107221 2.247369 -20.572079 -2.077911 -62.249677 -3.219103 2.610791 41.634539 1.746911 3.885878 -16.391134 -0.722600 0.000000 -35.153400 8.559673 0.883425 -2.209775 14.271696 -26.179981 -62.535422 5.083155 -4.456921 36.988354 -0.089261 1.578052 -5.624485 -0.113500 -0.000001 -72.397600
2.824377 16.325080 2.139957 9.312044 -76.949058 25.918243 -9.342858 1.086882 2.295133 -20.521986 -2.124078 -61.419744 -3.208444 2.501967 41.130916 1.692529 3.757475 -16.062820 -0.678501 -0.000000 -35.382700 8.613179 0.836421 -2.262466 14.064799 -26.741852 -61.720320 5.085376 -4.391590 36.544211 -0.122442 1.381155 -5.474769 -0.129100 0.000000 -72.430500
2.823063 16.351747 2.136545 9.515313 -76.367677 25.246072 -9.327892 1.063758 2.335896 -20.460859 -2.161459 -60.592570 -3.195898 2.396585 40.626853 1.642370 3.649708 -15.737127 -0.637300 0.000000 -35.573800 8.660336 0.793131 -2.321922 13.858318 -27.290537 -60.896181 5.088178 -4.324092 36.082275 -0.151512 1.200562 -5.305484 -0.144100 0.000000 -72.460900
2.822993 16.378050 2.133098 9.705226 -75.819127 24.601895 -9.315394 1.038098 2.371830 -20.398771 -2.200808 -59.783118 -3.182009 2.294576 40.125654 1.596815 3.563751 -15.411745 -0.598600 -0.000000 -35.761400 8.704153 0.753322 -2.381760 13.646985 -27.816235 -60.088226 5.091299 -4.257674 35.615057 -0.177446 1.033815 -5.124845 -0.158500 -0.000000 -72.480299
2.824081 16.403742 2.129480 9.900105 -75.304246 23.973103 -9.304510 1.009740 2.401716 -20.340705 -2.244393 -58.995923 -3.167342 2.196306 39.630883 1.556004 3.499115 -15.090235 -0.562400 -0.000001 -35.933400 8.744693 0.717691 -2.443189 13.433866 -28.323862 -59.309543 5.095652 -4.194660 35.150663 -0.199021 0.888586 -4.935870 -0.171600 -0.000000 -72.494200
2.826005 16.428398 2.125326 10.130100 -74.821202 23.338930 -9.293034 0.978290 2.425708 -20.296813 -2.297869 -58.239220 -3.152812 2.101530 39.144986 1.519810 3.454365 -14.772894 -0.528600 0.000000 -36.088501 8.783737 0.686112 -2.503263 13.216524 -28.813177 -58.579686 5.101799 -4.138166 34.700085 -0.215992 0.768518 -4.744835 -0.182801 0.000000 -72.504800
2.828788 16.451949 2.120582 10.400944 -74.368521 22.694443 -9.281179 0.942531 2.440662 -20.270390 -2.357295 -57.512150 -3.139049 2.010442 38.670769 1.487564 3.425735 -14.462833 -0.497000 -0.000000 -36.215400 8.820496 0.658814 -2.564749 12.998425 -29.291626 -57.904481 5.110830 -4.089903 34.268407 -0.227059 0.681459 -4.553133 -0.190900 -0.000000 -72.520500
2.832207 16.474202 2.114902 10.729901 -73.941547 22.026474 -9.267895 0.901155 2.445636 -20.268316 -2.423146 -56.817485 -3.126763 1.922604 38.209793 1.458446 3.409261 -14.159104 -0.467200 0.000001 -36.317799 8.855929 0.634874 -2.626131 12.778210 -29.761261 -57.294084 5.123261 -4.052125 33.863106 -0.232163 0.629612 -4.364757 -0.195300 0.000000 -72.544600
2.835643 16.494651 2.107868 11.150685 -73.529794 21.314339 -9.250543 0.853749 2.443946 -20.304481 -2.503396 -56.165338 -3.117107 1.836960 37.763299 1.431626 3.400839 -13.857504 -0.438300 -0.000000 -36.412200 8.893085 0.611866 -2.678902 12.549500 -30.216935 -56.770495 5.139173 -4.027948 33.496207 -0.232887 0.607851 -4.189469 -0.196200 0.000000 -72.569900
2.839329 16.513591 2.099515 11.646231 -73.129967 20.565708 -9.231251 0.798412 2.432406 -20.374388 -2.589533 -55.548628 -3.109895 1.753770 37.333007 1.405940 3.395432 -13.559358 -0.410200 -0.000000 -36.491000 8.929487 0.589319 -2.728043 12.318537 -30.668841 -56.324417 5.159345 -4.017138 33.165811 -0.228225 0.621305 -4.024990 -0.192800 0.000000 -72.606700
2.842927 16.530820 2.089603 12.229147 -72.733009 19.772944 -9.209530 0.734943 2.413970 -20.483210 -2.686357 -54.971687 -3.105577 1.672529 36.919426 1.380560 3.389428 -13.261406 -0.382100 -0.000000 -36.561300 8.965829 0.565544 -2.769214 12.083748 -31.116216 -55.965143 5.183730 -4.020850 32.877678 -0.219318 0.665451 -3.876752 -0.185200 -0.000000 -72.650300
